<svg width="12.000000" height="11.000000" viewBox="0 0 12 11" fill="none" xmlns="http://www.w3.org/2000/svg" xmlns:xlink="http://www.w3.org/1999/xlink">
	<desc>
			Created with Pixso.
	</desc>
	<defs/>
	<path id="Vector" d="M11.53 4.79C11.49 4.7 11.44 4.62 11.38 4.55L6.28 -0.54C6.18 -0.64 6.05 -0.71 5.91 -0.74C5.77 -0.77 5.63 -0.76 5.5 -0.7C5.41 -0.66 5.33 -0.61 5.26 -0.54C5.19 -0.48 5.14 -0.4 5.1 -0.31C5.03 -0.13 5.03 0.07 5.1 0.25C5.14 0.33 5.19 0.41 5.26 0.48L9.13 4.34L0.3 4.34C0.11 4.34 -0.07 4.42 -0.21 4.55C-0.34 4.69 -0.42 4.87 -0.42 5.06C-0.42 5.25 -0.34 5.43 -0.21 5.57C-0.07 5.7 0.11 5.78 0.3 5.78L9.13 5.78L5.26 9.64C5.19 9.71 5.14 9.79 5.1 9.88C5.03 10.05 5.03 10.25 5.1 10.43C5.18 10.61 5.32 10.75 5.5 10.82C5.58 10.85 5.68 10.87 5.77 10.87C5.87 10.87 5.96 10.86 6.05 10.82C6.14 10.78 6.22 10.73 6.28 10.66L11.38 5.57C11.44 5.5 11.49 5.42 11.53 5.33C11.6 5.16 11.6 4.96 11.53 4.79Z" fill="#D9D9DE" fill-opacity="1.000000" fill-rule="evenodd"/>
</svg>
