<svg width="20.000000" height="16.000000" viewBox="0 0 20 16" fill="none" xmlns="http://www.w3.org/2000/svg" xmlns:xlink="http://www.w3.org/1999/xlink">
	<defs/>
	<path id="Vector" d="M19.71 7.4C17.69 2.71 13.89 -0.2 9.79 -0.2C5.69 -0.2 1.89 2.71 -0.13 7.4C-0.18 7.52 -0.21 7.66 -0.21 7.8C-0.21 7.93 -0.18 8.07 -0.13 8.2C1.89 12.89 5.69 15.8 9.79 15.8C13.89 15.8 17.69 12.89 19.71 8.2C19.77 8.07 19.8 7.93 19.8 7.8C19.8 7.66 19.77 7.52 19.71 7.4ZM9.79 13.8C6.62 13.8 3.62 11.51 1.89 7.8C3.62 4.09 6.62 1.8 9.79 1.8C12.96 1.8 15.96 4.09 17.69 7.8C15.96 11.51 12.96 13.8 9.79 13.8ZM9.79 3.8C9 3.8 8.23 4.03 7.57 4.47C6.91 4.91 6.4 5.53 6.1 6.26C5.8 7 5.72 7.8 5.87 8.58C6.02 9.35 6.41 10.06 6.97 10.62C7.52 11.18 8.24 11.56 9.01 11.72C9.79 11.87 10.59 11.79 11.32 11.49C12.06 11.19 12.68 10.68 13.12 10.02C13.56 9.36 13.79 8.59 13.79 7.8C13.79 6.73 13.37 5.72 12.62 4.97C11.87 4.22 10.85 3.8 9.79 3.8ZM9.79 9.8C9.4 9.8 9.01 9.68 8.68 9.46C8.35 9.24 8.1 8.93 7.95 8.56C7.79 8.19 7.75 7.79 7.83 7.4C7.91 7.02 8.1 6.66 8.38 6.38C8.66 6.1 9.02 5.91 9.4 5.83C9.79 5.76 10.19 5.8 10.56 5.95C10.92 6.1 11.24 6.35 11.46 6.68C11.68 7.01 11.79 7.4 11.79 7.8C11.79 8.33 11.58 8.83 11.21 9.21C10.83 9.58 10.32 9.8 9.79 9.8Z" fill="#FFFFFF" fill-opacity="1.000000" fill-rule="nonzero"/>
</svg>
