<svg width="27.000000" height="28.000000" viewBox="0 0 27 28" fill="none" xmlns="http://www.w3.org/2000/svg" xmlns:xlink="http://www.w3.org/1999/xlink">
	<desc>
			Created with Pixso.
	</desc>
	<defs/>
	<path id="Vector" d="M13.05 26.71C20.19 26.71 25.97 20.93 25.97 13.79C25.97 6.66 20.19 0.88 13.05 0.88C5.92 0.88 0.14 6.66 0.14 13.79C0.14 20.93 5.92 26.71 13.05 26.71Z" stroke="#FFFFFF" stroke-opacity="1.000000" stroke-width="1.937500" stroke-linejoin="round"/>
	<path id="Vector" d="M14.35 0.94C14.35 0.94 18.22 6.04 18.22 13.79C18.22 21.54 14.35 26.65 14.35 26.65M11.76 26.65C11.76 26.65 7.89 21.54 7.89 13.79C7.89 6.04 11.76 0.94 11.76 0.94M0.95 18.32L25.16 18.32M0.95 9.27L25.16 9.27" stroke="#FFFFFF" stroke-opacity="1.000000" stroke-width="1.937500" stroke-linejoin="round"/>
</svg>
