<svg width="20.000000" height="20.000000" viewBox="0 0 20 20" fill="none" xmlns="http://www.w3.org/2000/svg" xmlns:xlink="http://www.w3.org/1999/xlink">
	<desc>
			Created with Pixso.
	</desc>
	<defs/>
	<path id="Vector" d="M18.87 18.09L15.16 14.41C16.6 12.61 17.3 10.33 17.11 8.04C16.92 5.74 15.86 3.61 14.14 2.07C12.43 0.54 10.19 -0.29 7.89 -0.22C5.59 -0.16 3.4 0.78 1.77 2.41C0.15 4.04 -0.8 6.23 -0.86 8.53C-0.92 10.83 -0.1 13.07 1.44 14.78C2.97 16.49 5.11 17.56 7.4 17.74C9.69 17.93 11.97 17.24 13.77 15.8L17.45 19.48C17.54 19.57 17.65 19.64 17.77 19.69C17.9 19.74 18.03 19.77 18.16 19.77C18.29 19.77 18.42 19.74 18.54 19.69C18.66 19.64 18.78 19.57 18.87 19.48C19.05 19.29 19.15 19.04 19.15 18.78C19.15 18.52 19.05 18.27 18.87 18.09ZM8.16 15.8C6.77 15.8 5.42 15.38 4.27 14.62C3.12 13.85 2.22 12.75 1.69 11.47C1.16 10.19 1.02 8.79 1.29 7.43C1.56 6.07 2.23 4.82 3.21 3.85C4.19 2.87 5.43 2.2 6.79 1.93C8.15 1.66 9.56 1.8 10.84 2.33C12.12 2.86 13.21 3.75 13.98 4.91C14.75 6.06 15.16 7.41 15.16 8.8C15.16 10.65 14.42 12.43 13.11 13.74C11.8 15.06 10.01 15.8 8.16 15.8Z" fill="#FFFFFF" fill-opacity="1.000000" fill-rule="nonzero"/>
</svg>
