<svg width="20.000000" height="20.000000" viewBox="0 0 20 20" fill="none" xmlns="http://www.w3.org/2000/svg" xmlns:xlink="http://www.w3.org/1999/xlink">
	<desc>
			Created with Pixso.
	</desc>
	<defs/>
	<path id="Vector" d="M12.34 8.68L10.34 8.68L10.34 4.68C10.34 4.41 10.23 4.16 10.04 3.97C9.86 3.78 9.6 3.68 9.34 3.68C9.07 3.68 8.82 3.78 8.63 3.97C8.44 4.16 8.34 4.41 8.34 4.68L8.34 9.68C8.34 9.94 8.44 10.2 8.63 10.38C8.82 10.57 9.07 10.68 9.34 10.68L12.34 10.68C12.6 10.68 12.86 10.57 13.04 10.38C13.23 10.2 13.34 9.94 13.34 9.68C13.34 9.41 13.23 9.16 13.04 8.97C12.86 8.78 12.6 8.68 12.34 8.68ZM9.34 -0.32C7.36 -0.32 5.43 0.26 3.78 1.36C2.14 2.46 0.85 4.02 0.1 5.85C-0.66 7.68 -0.86 9.69 -0.47 11.63C-0.09 13.57 0.87 15.35 2.27 16.75C3.66 18.15 5.45 19.1 7.39 19.48C9.33 19.87 11.34 19.67 13.16 18.92C14.99 18.16 16.55 16.88 17.65 15.23C18.75 13.59 19.34 11.65 19.34 9.68C19.33 7.03 18.28 4.48 16.4 2.61C14.53 0.73 11.99 -0.32 9.34 -0.32ZM9.34 17.68C7.75 17.68 6.21 17.21 4.89 16.33C3.58 15.45 2.55 14.2 1.95 12.74C1.34 11.28 1.18 9.67 1.49 8.12C1.8 6.56 2.56 5.14 3.68 4.02C4.8 2.9 6.22 2.14 7.78 1.83C9.33 1.52 10.94 1.68 12.4 2.29C13.86 2.89 15.11 3.92 15.99 5.23C16.87 6.55 17.34 8.09 17.34 9.68C17.33 11.8 16.49 13.83 14.99 15.33C13.49 16.83 11.46 17.67 9.34 17.68Z" fill="#FFFFFF" fill-opacity="1.000000" fill-rule="nonzero"/>
</svg>
